<svg width="154" height="167" viewBox="0 0 154 167" fill="none" xmlns="http://www.w3.org/2000/svg">
<path d="M7.70667 152.999H12.068V154.879H7.70667V159.82H5.70862V154.879H1.34729V152.999H5.70862V148.434H7.70667V152.999Z" fill="#E5E5E5"/>
<path d="M42.7067 117.999H47.068V119.879H42.7067V124.82H40.7086V119.879H36.3473V117.999H40.7086V113.434H42.7067V117.999Z" fill="#E5E5E5"/>
<path d="M77.7067 12.999H82.068V14.8789H77.7067V19.8203H75.7086V14.8789H71.3473V12.999H75.7086V8.43359H77.7067V12.999Z" fill="#E5E5E5"/>
<path d="M77.7067 47.999H82.068V49.8789H77.7067V54.8203H75.7086V49.8789H71.3473V47.999H75.7086V43.4336H77.7067V47.999Z" fill="#E5E5E5"/>
<path d="M82.068 82.999V84.8682H71.3473V82.999H82.068ZM77.7067 78.4336V89.8203H75.7194V78.4336H77.7067Z" fill="#CE1B28"/>
<path d="M77.7067 117.999H82.068V119.879H77.7067V124.82H75.7086V119.879H71.3473V117.999H75.7086V113.434H77.7067V117.999Z" fill="#E5E5E5"/>
<path d="M77.7067 152.999H82.068V154.879H77.7067V159.82H75.7086V154.879H71.3473V152.999H75.7086V148.434H77.7067V152.999Z" fill="#E5E5E5"/>
<path d="M112.707 12.999H117.068V14.8789H112.707V19.8203H110.709V14.8789H106.347V12.999H110.709V8.43359H112.707V12.999Z" fill="#E5E5E5"/>
<path d="M112.707 47.999H117.068V49.8789H112.707V54.8203H110.709V49.8789H106.347V47.999H110.709V43.4336H112.707V47.999Z" fill="#E5E5E5"/>
<path d="M112.707 82.999H117.068V84.8789H112.707V89.8203H110.709V84.8789H106.347V82.999H110.709V78.4336H112.707V82.999Z" fill="#E5E5E5"/>
<path d="M112.707 117.999H117.068V119.879H112.707V124.82H110.709V119.879H106.347V117.999H110.709V113.434H112.707V117.999Z" fill="#E5E5E5"/>
<path d="M112.707 152.999H117.068V154.879H112.707V159.82H110.709V154.879H106.347V152.999H110.709V148.434H112.707V152.999Z" fill="#E5E5E5"/>
<path d="M147.707 12.999H152.068V14.8789H147.707V19.8203H145.709V14.8789H141.347V12.999H145.709V8.43359H147.707V12.999Z" fill="#FF7152"/>
<path d="M147.707 47.999H152.068V49.8789H147.707V54.8203H145.709V49.8789H141.347V47.999H145.709V43.4336H147.707V47.999Z" fill="#E5E5E5"/>
<path d="M147.707 82.999H152.068V84.8789H147.707V89.8203H145.709V84.8789H141.347V82.999H145.709V78.4336H147.707V82.999Z" fill="#E5E5E5"/>
<path d="M147.707 117.999H152.068V119.879H147.707V124.82H145.709V119.879H141.347V117.999H145.709V113.434H147.707V117.999Z" fill="#E5E5E5"/>
<path d="M147.707 152.999H152.068V154.879H147.707V159.82H145.709V154.879H141.347V152.999H145.709V148.434H147.707V152.999Z" fill="#E5E5E5"/>
</svg>
